# AST/ASF file generated using VICON BodyLanguage
# -----------------------------------------------
:version 1.10
:name VICON
:units
  mass 1.0
  length 0.45
  angle deg
:documentation
   .ast/.asf automatically generated from VICON data using
   VICON BodyBuilder and BodyLanguage model FoxedUp or BRILLIANT.MOD
:root
   order TX TY TZ RX RY RZ
   axis XYZ
   position 0 0 0  
   orientation 0 0 0 
:bonedata
  begin
     id 1 
     name lhipjoint
     direction 0.577973 -0.728611 0.367523 
     length 2.48544 
     axis 0 0 0  XYZ
  end
  begin
     id 2 
     name lfemur
     direction 0.34202 -0.939693 0  
     length 7.1921  
     axis 0 0 20  XYZ
    dof rx ry rz
    limits (-160.0 20.0)
           (-70.0 70.0)
           (-60.0 70.0)
  end
  begin
     id 3 
     name ltibia
     direction 0.34202 -0.939693 0   
     length 7.71059   
     axis 0 0 20   XYZ
    dof rx
    limits (-10.0 170.0)
  end
  begin
     id 4 
     name lfoot
     direction 0.089538 -0.246004 0.965124   
     length 2.19909   
     axis -90 7.62852e-016 20   XYZ
    dof rx rz
    limits (-45.0 90.0)
           (-70.0 20.0)
  end
  begin
     id 5 
     name ltoes
     direction 1.53544e-011 -4.21829e-011 1   
     length 1.10116   
     axis -90 7.62852e-016 20   XYZ
    dof rx
    limits (-90.0 20.0)
  end
  begin
     id 6 
     name rhipjoint
     direction -0.554414 -0.743062 0.374812   
     length 2.4371  
     axis 0 0 0  XYZ 
  end
  begin
     id 7 
     name rfemur
     direction -0.34202 -0.939693 0   
     length 7.47254   
     axis 0 0 -20   XYZ
    dof rx ry rz
    limits (-160.0 20.0)
           (-70.0 70.0)
           (-70.0 60.0)
  end
  begin
     id 8 
     name rtibia
     direction -0.34202 -0.939693 0   
     length 7.65855   
     axis 0 0 -20   XYZ
    dof rx
    limits (-10.0 170.0)
 end
 begin
     id 9 
     name rfoot
     direction -0.133779 -0.367555 0.92033   
     length 2.43006  
     axis -90 -7.62852e-016 -20   XYZ
    dof rx rz
    limits (-45.0 90.0)
           (-20.0 70.0)
  end
  begin
     id 10 
     name rtoes
     direction -1.53563e-011 -4.21889e-011 1   
     length 1.19625   
     axis -90 -7.62852e-016 -20   XYZ
    dof rx
    limits (-90.0 20.0)
  end
  begin
     id 11 
     name lowerback
     direction 0.0249066 0.998043 -0.0573585   
     length 2.08485   
     axis 0 0 0   XYZ
    dof rx ry rz
    limits (-20.0 45.0)
           (-30.0 30.0)
           (-30.0 30.0)
  end
  begin
     id 12 
     name upperback
     direction 0.0237884 0.999673 0.00943178   
     length 2.08515   
     axis 0 0 0   XYZ
    dof rx ry rz
    limits (-20.0 45.0)
           (-30.0 30.0)
           (-30.0 30.0)
  end
  begin
     id 13 
     name thorax
     direction 0.0106671 0.999301 0.0358174   
     length 2.09037   
     axis 0 0 0   XYZ
    dof rx ry rz
    limits (-20.0 45.0)
           (-30.0 30.0)
           (-30.0 30.0)
  end
  begin
     id 14 
     name lowerneck
     direction -0.0580016 0.987052 0.149546   
     length 1.84454   
     axis 0 0 0   XYZ
    dof rx ry rz
    limits (-20.0 45.0)
           (-30.0 30.0)
           (-30.0 30.0)
  end
  begin
     id 15 
     name upperneck
     direction 0.079456 0.981963 -0.171567   
     length 1.88141   
     axis 0 0 0   XYZ
    dof rx ry rz
    limits (-20.0 45.0)
           (-30.0 30.0)
           (-30.0 30.0)
  end
  begin
     id 16
     name head
     direction 0.0262167 0.9967 -0.0768276  
     length 1.89541  
     axis 0 0 0   XYZ
    dof rx ry rz
    limits (-20.0 45.0)
           (-30.0 30.0)
           (-30.0 30.0)
  end
  begin
     id 17 
     name lclavicle
     direction 0.946135 0.322134 -0.0325326  
     length 3.949  
     axis 0 0 0   XYZ
    dof ry rz
    limits (-20.0 10.0)
           (0.0 20.0)
  end
  begin
     id 18 
     name lhumerus
     direction 1 -4.48964e-011 1.94005e-028   
     length 5.10995   
     axis 180 -30 -90   XYZ
    dof rx ry rz
    limits (-60.0 90.0)
           (-90.0 90.0)
           (-90.0 90.0)
  end
  begin
     id 19
     name lradius
     direction 1 -4.48976e-011 2.87852e-027   
     length 3.21207   
     axis 180 -30 -90   XYZ
    dof rx
    limits (-10.0 170.0)
  end
  begin
     id 20
     name lwrist
     direction 1 -4.48963e-011 1.9975e-027   
     length 1.60604   
     axis 2.96054e-016 90 90   XYZ
    dof ry
    limits (-180.0 0.0)
 end
  begin
     id 21 
     name lhand
     direction 1 -4.48919e-011 4.00227e-027   
     length 0.63349   
     axis -2.5488e-015 90 90   XYZ
    dof rx rz
    limits (-90.0 90.0)
           (-45.0 45.0)
  end
  begin
     id 22 
     name lfingers
     direction 1 -4.49037e-011 7.9652e-027   
     length 0.510736   
     axis -5.0975e-015 90 90   XYZ
    dof rx
    limits (0.0 90.0)
  end
  begin
     id 23
     name lthumb
     direction 0.707107 -6.34922e-011 0.707107   
     length 0.733318   
     axis -90 45 -4.48553e-014   XYZ
    dof rx rz
    limits (-45.0 45.0)
           (-45.0 45.0)
  end
  begin
     id 24 
     name rclavicle
     direction -0.940085 0.328911 -0.0897654   
     length 3.93848  
     axis 0 0 0   XYZ 
    dof ry rz
    limits (-10.0 20.0)
           (-20.0 0.0)
  end
  begin
     id 25 
     name rhumerus
     direction -1 -4.48958e-011 3.02044e-027  
     length 5.25109   
     axis 180 30 90   XYZ
    dof rx ry rz
    limits (-90.0 60.0)
           (-90.0 90.0)
           (-90.0 90.0)
  end
  begin
     id 26 
     name rradius
     direction -1 -4.4897e-011 9.78352e-028   
     length 3.28364   
     axis 180 30 90   XYZ
    dof rx
    limits (-10.0 170.0)
  end
  begin
     id 27 
     name rwrist
     direction -1 -4.48943e-011 1.99918e-027   
     length 1.64182   
     axis 2.96054e-016 -90 -90   XYZ
    dof ry
    limits (-180.0 0.0)
  end
  begin
     id 28
     name rhand
     direction -1 -4.49024e-011 3.98478e-027   
     length 0.599745   
     axis -2.5488e-015 -90 -90   XYZ
    dof rx rz
    limits (-90.0 90.0)
           (-45.0 45.0)
  end
  begin
     id 29
     name rfingers
     direction -1 -4.48914e-011 8.00621e-027   
     length 0.48353   
     axis -5.0975e-015 -90 -90   XYZ
    dof rx
    limits (0.0 90.0)
  end
  begin
     id 30
     name rthumb
     direction -0.707107 -6.34992e-011 0.707107   
     length 0.694255   
     axis -90 -45 4.48553e-014   XYZ
    dof rx rz
    limits (-45.0 45.0)
           (-45.0 45.0)
  end
:hierarchy
  begin
    root lhipjoint rhipjoint lowerback
    lhipjoint lfemur
    lfemur ltibia
    ltibia lfoot
    lfoot ltoes
    rhipjoint rfemur
    rfemur rtibia
    rtibia rfoot
    rfoot rtoes
    lowerback upperback
    upperback thorax
    thorax lowerneck lclavicle rclavicle
    lowerneck upperneck
    upperneck head
    lclavicle lhumerus
    lhumerus lradius
    lradius lwrist
    lwrist lhand lthumb
    lhand lfingers
    rclavicle rhumerus
    rhumerus rradius
    rradius rwrist
    rwrist rhand rthumb
    rhand rfingers
  end

#!OML:ASF E:\CV Data\Top Level 1\Subject 1\Session 1\player.ASF
:FULLY-SPECIFIED
:DEGREES
42
root 6.3857 17.2351 -8.66359 102.504 -86.2429 -99.3273
lowerback 1.5039 1.74033 2.28675
upperback -2.10996 2.41721 2.78802
thorax -3.03874 1.16651 1.48839
lowerneck -16.9534 4.61406 -4.94953
upperneck 21.0684 6.74821 3.79294
head 9.09796 3.12915 2.95055
rclavicle -2.26677e-014 -2.54444e-014
rhumerus -44.9385 40.2248 -106.65
rradius 92.6746
rwrist -6.85343
rhand -29.2082 25.5534
rfingers 7.12502
rthumb -2.55283 -4.4111
lclavicle -2.26677e-014 -2.54444e-014
lhumerus -46.0944 -35.056 112.95
lradius 87.3221
lwrist 2.73357
lhand -26.8877 8.72879
lfingers 7.12502
lthumb -0.311657 38.7083
rfemur -17.7236 5.86582 26.5888
rtibia 39.3
rfoot -23.385 -5.73775
rtoes 12.7657
lfemur -14.7949 1.53095 -15.7428
ltibia 36.0659
lfoot -18.7649 7.87222
ltoes 0.247686
43
root 6.38809 17.2347 -8.66713 103.16 -86.2324 -99.9853
lowerback 1.51315 1.74794 2.28366
upperback -2.09796 2.42733 2.77742
thorax -3.03131 1.17173 1.47866
lowerneck -16.9346 4.61734 -4.93558
upperneck 21.0655 6.74376 3.80926
head 9.09349 3.13006 2.95254
rclavicle 1.66482e-015 1.82882e-014
rhumerus -44.8948 40.2309 -106.631
rradius 92.6687
rwrist -6.84566
rhand -29.2132 25.57
rfingers 7.12502
rthumb -2.55766 -4.39445
lclavicle 1.66482e-015 1.82882e-014
lhumerus -46.083 -35.0289 112.973
lradius 87.2963
lwrist 2.64978
lhand -26.7734 8.6132
lfingers 7.12502
lthumb -0.201248 38.5928
rfemur -17.7446 5.87502 26.6031
rtibia 39.3149
rfoot -23.3664 -5.70152
rtoes 12.8108
lfemur -14.8071 1.56611 -15.7301
ltibia 36.0839
lfoot -18.7514 7.89928
ltoes 0.174653
44
root 6.39074 17.2343 -8.6708 103.937 -86.2193 -100.763
lowerback 1.52533 1.75894 2.28376
upperback -2.08528 2.44214 2.76457
thorax -3.02464 1.1792 1.46454
lowerneck -16.9141 4.62107 -4.92008
upperneck 21.0636 6.73905 3.82697
head 9.08906 3.1311 2.95469
rclavicle 1.6027e-015 -1.74931e-014
rhumerus -44.8498 40.2333 -106.616
rradius 92.6635
rwrist -6.84451
rhand -29.2154 25.5813
rfingers 7.12502
rthumb -2.55978 -4.38306
lclavicle 1.6027e-015 -1.74931e-014
lhumerus -46.0723 -35.0061 112.994
lradius 87.2739
lwrist 2.5758
lhand -26.6567 8.51141
lfingers 7.12502
lthumb -0.0884919 38.4911
rfemur -17.7676 5.88641 26.6184
rtibia 39.3319
rfoot -23.347 -5.65661
rtoes 12.8662
lfemur -14.8198 1.61652 -15.716
ltibia 36.1035
lfoot -18.7392 7.92357
ltoes 0.0886358
45
root 6.39344 17.2338 -8.67444 104.85 -86.2021 -101.679
lowerback 1.53693 1.77396 2.29043
upperback -2.07098 2.4624 2.74905
thorax -3.01563 1.18924 1.44385
lowerneck -16.8935 4.62598 -4.90667
upperneck 21.0656 6.73493 3.85126
head 9.08558 3.13288 2.95961
rclavicle -4.29251e-015 2.62396e-014
rhumerus -44.8034 40.233 -106.605
rradius 92.6601
rwrist -6.85001
rhand -29.2206 25.5856
rfingers 7.12502
rthumb -2.56475 -4.37872
lclavicle -4.29251e-015 2.62396e-014
lhumerus -46.0601 -34.9949 113.005
lradius 87.2569
lwrist 2.52155
lhand -26.5503 8.43807
lfingers 7.12502
lthumb 0.0142923 38.4178
rfemur -17.7924 5.89731 26.6346
rtibia 39.3505
rfoot -23.3256 -5.60383
rtoes 12.9048
lfemur -14.8318 1.67632 -15.7008
ltibia 36.1248
lfoot -18.7291 7.94849
ltoes 0.00290078
46
root 6.39621 17.2333 -8.67816 105.887 -86.1827 -102.717
lowerback 1.54692 1.79109 2.2984
upperback -2.05509 2.48538 2.7322
thorax -3.00397 1.20063 1.42102
lowerneck -16.8732 4.63416 -4.89432
upperneck 21.0711 6.73522 3.8773
head 9.08298 3.13673 2.96592
rclavicle -7.05375e-015 -3.77691e-014
rhumerus -44.7555 40.2354 -106.598
rradius 92.6569
rwrist -6.85993
rhand -29.2325 25.5886
rfingers 7.12502
rthumb -2.57628 -4.37559
lclavicle -7.05375e-015 -3.77691e-014
lhumerus -46.0474 -35.001 112.997
lradius 87.2535
lwrist 2.4976
lhand -26.4535 8.38754
lfingers 7.12502
lthumb 0.107731 38.3673
rfemur -17.8192 5.90818 26.6501
rtibia 39.3697
rfoot -23.3033 -5.54433
rtoes 12.9285
lfemur -14.8448 1.74999 -15.6852
ltibia 36.1483
lfoot -18.7236 7.96448
ltoes -0.067274
47
root 6.39903 17.2326 -8.68202 107.038 -86.1611 -103.871
lowerback 1.55625 1.80891 2.30477
upperback -2.03694 2.50914 2.71704
thorax -2.98973 1.21248 1.40085
lowerneck -16.8573 4.64766 -4.88655
upperneck 21.0851 6.74368 3.90611
head 9.08344 3.14409 2.97528
rclavicle 4.53881e-014 1.70955e-014
rhumerus -44.7093 40.2478 -106.596
rradius 92.6545
rwrist -6.87149
rhand -29.2547 25.5933
rfingers 7.12502
rthumb -2.59769 -4.37059
lclavicle 4.53881e-014 1.70955e-014
lhumerus -46.0329 -35.0104 112.98
lradius 87.2588
lwrist 2.49554
lhand -26.3801 8.35503
lfingers 7.12502
lthumb 0.178631 38.3347
rfemur -17.8465 5.91952 26.6646
rtibia 39.3894
rfoot -23.2792 -5.47986
rtoes 12.9355
lfemur -14.8577 1.8377 -15.6691
ltibia 36.1734
lfoot -18.7231 7.96722
ltoes -0.113746
48
root 6.40197 17.2319 -8.68597 108.29 -86.1349 -105.127
lowerback 1.5669 1.8266 2.31174
upperback -2.0163 2.53276 2.70399
thorax -2.97371 1.22428 1.38251
lowerneck -16.8485 4.66622 -4.87884
upperneck 21.1108 6.75938 3.93528
head 9.08884 3.15453 2.98627
rclavicle 1.27657e-015 2.26615e-014
rhumerus -44.6657 40.2737 -106.598
rradius 92.6531
rwrist -6.88244
rhand -29.2847 25.6057
rfingers 7.12502
rthumb -2.62668 -4.35786
lclavicle 1.27657e-015 2.26615e-014
lhumerus -46.0147 -35.0182 112.952
lradius 87.2719
lwrist 2.50835
lhand -26.2982 8.31774
lfingers 7.12502
lthumb 0.257732 38.2973
rfemur -17.8722 5.93626 26.6802
rtibia 39.409
rfoot -23.2542 -5.41219
rtoes 12.9366
lfemur -14.8682 1.93086 -15.6506
ltibia 36.2003
lfoot -18.7272 7.9631
ltoes -0.123625
49
root 6.40529 17.2311 -8.69029 109.595 -86.1067 -106.438
lowerback 1.58165 1.84368 2.31362
upperback -1.99461 2.55559 2.69299
thorax -2.95922 1.23583 1.36905
lowerneck -16.8444 4.68945 -4.86717
upperneck 21.1447 6.78177 3.95978
head 9.09796 3.16764 2.99625
rclavicle 1.9484e-014 1.66979e-014
rhumerus -44.625 40.3096 -106.604
rradius 92.6516
rwrist -6.89074
rhand -29.3205 25.6243
rfingers 7.12502
rthumb -2.6612 -4.33883
lclavicle 1.9484e-014 1.66979e-014
lhumerus -45.9955 -35.028 112.912
lradius 87.2951
lwrist 2.53459
lhand -26.2359 8.29136
lfingers 7.12502
lthumb 0.317863 38.2709
rfemur -17.8981 5.96114 26.6958
rtibia 39.4293
rfoot -23.2287 -5.34686
rtoes 12.9536
lfemur -14.8787 2.03047 -15.631
ltibia 36.2281
lfoot -18.731 7.95495
ltoes -0.145535
50
root 6.40912 17.2303 -8.69506 110.909 -86.0707 -107.758
lowerback 1.60199 1.86113 2.3152
upperback -1.97301 2.57918 2.68578
thorax -2.94818 1.24775 1.35945
lowerneck -16.8415 4.71515 -4.85086
upperneck 21.1849 6.80792 3.97745
head 9.10972 3.18187 3.00386
rclavicle -2.13103e-014 5.96354e-015
rhumerus -44.5884 40.3522 -106.614
rradius 92.6504
rwrist -6.89664
rhand -29.3605 25.6496
rfingers 7.12502
rthumb -2.69987 -4.31309
lclavicle -2.13103e-014 5.96354e-015
lhumerus -45.9796 -35.041 112.864
lradius 87.33
lwrist 2.56583
lhand -26.1783 8.27406
lfingers 7.12502
lthumb 0.373552 38.2535
rfemur -17.9245 5.99402 26.719
rtibia 39.4503
rfoot -23.2024 -5.28432
rtoes 12.9863
lfemur -14.8896 2.1382 -15.6029
ltibia 36.2567
lfoot -18.7349 7.94142
ltoes -0.183595
51
root 6.41353 17.2295 -8.70035 112.254 -86.0311 -109.108
lowerback 1.62853 1.87975 2.31249
upperback -1.95188 2.60453 2.67924
thorax -2.94133 1.26062 1.35262
lowerneck -16.8348 4.74202 -4.83015
upperneck 21.2244 6.83575 3.98871
head 9.12092 3.19649 3.00861
rclavicle -2.03164e-014 -1.07344e-014
rhumerus -44.5518 40.3962 -106.626
rradius 92.6471
rwrist -6.90119
rhand -29.4029 25.6757
rfingers 7.12502
rthumb -2.74085 -4.28644
lclavicle -2.03164e-014 -1.07344e-014
lhumerus -45.9651 -35.0466 112.819
lradius 87.3641
lwrist 2.58481
lhand -26.181 8.29479
lfingers 7.12502
lthumb 0.370948 38.2742
rfemur -17.953 6.03568 26.745
rtibia 39.4727
rfoot -23.174 -5.2268
rtoes 13.0272
lfemur -14.9012 2.24027 -15.5726
ltibia 36.2856
lfoot -18.7351 7.9388
ltoes -0.245894
52
root 6.41852 17.2285 -8.70614 113.614 -85.9879 -110.478
lowerback 1.66612 1.89928 2.30713
upperback -1.92999 2.63151 2.67295
thorax -2.94008 1.27435 1.3471
lowerneck -16.8212 4.76955 -4.80719
upperneck 21.2593 6.86483 3.99431
head 9.12958 3.21134 3.01082
rclavicle -1.81174e-014 -5.96354e-015
rhumerus -44.5135 40.4396 -106.639
rradius 92.6416
rwrist -6.9062
rhand -29.433 25.6942
rfingers 7.12502
rthumb -2.76993 -4.26753
lclavicle -1.81174e-014 -5.96354e-015
lhumerus -45.9487 -35.0453 112.769
lradius 87.3991
lwrist 2.59312
lhand -26.1869 8.32816
lfingers 7.12502
lthumb 0.365219 38.3076
rfemur -17.9787 6.08609 26.7746
rtibia 39.4965
rfoot -23.145 -5.17497
rtoes 13.0843
lfemur -14.9082 2.33319 -15.5408
ltibia 36.3148
lfoot -18.73 7.95354
ltoes -0.348301
53
root 6.42395 17.2273 -8.71205 115.028 -85.9385 -111.91
lowerback 1.71455 1.92108 2.30505
upperback -1.90593 2.66201 2.66615
thorax -2.94256 1.28973 1.33871
lowerneck -16.8 4.79781 -4.78218
upperneck 21.2899 6.89524 3.99453
head 9.1356 3.22643 3.01058
rclavicle -6.80216e-015 2.06736e-014
rhumerus -44.4723 40.4825 -106.652
rradius 92.6333
rwrist -6.91577
rhand -29.458 25.7021
rfingers 7.12502
rthumb -2.79399 -4.25935
lclavicle -6.80216e-015 2.06736e-014
lhumerus -45.9276 -35.0241 112.721
lradius 87.4249
lwrist 2.58059
lhand -26.1865 8.363
lfingers 7.12502
lthumb 0.365631 38.3424
rfemur -18.0003 6.13822 26.8078
rtibia 39.5222
rfoot -23.1136 -5.12514
rtoes 13.1228
lfemur -14.9068 2.40162 -15.5094
ltibia 36.3436
lfoot -18.7181 8.00027
ltoes -0.465317
54
root 6.42967 17.226 -8.71797 116.533 -85.8842 -113.435
lowerback 1.76684 1.94522 2.30589
upperback -1.87982 2.69581 2.65757
thorax -2.94489 1.3067 1.32658
lowerneck -16.7677 4.82899 -4.75582
upperneck 21.3111 6.93029 3.98826
head 9.13645 3.2433 3.0077
rclavicle -1.81383e-014 1.31198e-014
rhumerus -44.4265 40.526 -106.664
rradius 92.6219
rwrist -6.928
rhand -29.4765 25.6967
rfingers 7.12502
rthumb -2.81188 -4.26449
lclavicle -1.81383e-014 1.31198e-014
lhumerus -45.8994 -34.9823 112.675
lradius 87.4405
lwrist 2.55263
lhand -26.1537 8.37023
lfingers 7.12502
lthumb 0.397267 38.3496
rfemur -18.0232 6.19399 26.8408
rtibia 39.5506
rfoot -23.0807 -5.07565
rtoes 13.1514
lfemur -14.9006 2.44262 -15.4816
ltibia 36.3719
lfoot -18.7006 8.08032
ltoes -0.568905
55
root 6.43551 17.2247 -8.72386 118.166 -85.8252 -115.088
lowerback 1.8194 1.97219 2.30783
upperback -1.85155 2.73332 2.64624
thorax -2.94496 1.32551 1.31085
lowerneck -16.7272 4.86473 -4.72835
upperneck 21.3271 6.97132 3.98049
head 9.1338 3.26302 3.0043
rclavicle 4.54565e-015 1.03368e-014
rhumerus -44.3766 40.5701 -106.676
rradius 92.6072
rwrist -6.94187
rhand -29.4896 25.6753
rfingers 7.12502
rthumb -2.82455 -4.28578
lclavicle 4.54565e-015 1.03368e-014
lhumerus -45.8684 -34.9293 112.631
lradius 87.45
lwrist 2.52554
lhand -26.1158 8.36112
lfingers 7.12502
lthumb 0.433885 38.3404
rfemur -18.0501 6.2523 26.8701
rtibia 39.5831
rfoot -23.0445 -5.02318
rtoes 13.1638
lfemur -14.8917 2.46114 -15.4604
ltibia 36.3998
lfoot -18.6789 8.18791
ltoes -0.649754
56
root 6.4414 17.2235 -8.7296 119.966 -85.7629 -116.907
lowerback 1.86977 2.00375 2.31054
upperback -1.82097 2.77677 2.6285
thorax -2.94109 1.34729 1.28792
lowerneck -16.6889 4.90407 -4.69882
upperneck 21.3488 7.01559 3.97815
head 9.13323 3.28488 3.00307
rclavicle -1.76097e-014 -1.15295e-014
rhumerus -44.3197 40.61 -106.686
rradius 92.5893
rwrist -6.95392
rhand -29.498 25.6418
rfingers 7.12502
rthumb -2.83263 -4.31916
lclavicle -1.76097e-014 -1.15295e-014
lhumerus -45.8391 -34.872 112.592
lradius 87.4539
lwrist 2.50167
lhand -26.0858 8.33646
lfingers 7.12502
lthumb 0.462883 38.3157
rfemur -18.0838 6.31605 26.8903
rtibia 39.6211
rfoot -23.0069 -4.96436
rtoes 13.1744
lfemur -14.8817 2.46466 -15.4498
ltibia 36.4276
lfoot -18.6561 8.31446
ltoes -0.669903
